<svg aria-hidden="true" style="position: absolute; width: 0; height: 0; overflow: hidden;" version="1.1" xmlns="http://www.w3.org/2000/svg" xmlns:xlink="http://www.w3.org/1999/xlink">
<defs>
<symbol id="icon-tote" viewBox="0 0 32 32">
<path d="M16.017 0c-0.195 0-0.4 0-0.593 0.020-2.239 0.163-4.297 0.994-5.762 2.507-1.595 1.647-1.98 3.382-1.962 5.479l-4.266-0.006c-0.191-0-0.389-0.005-0.589-0.010-0.557-0.013-1.135-0.027-1.656 0.056-0.314 0.050-0.589 0.184-0.81 0.385-0.387 0.352-0.397 0.797-0.371 1.252 0.040 0.718 0.11 1.437 0.181 2.156 0.038 0.391 0.077 0.782 0.11 1.172l0.708 7.99 0.345 3.858c0.017 0.19 0.031 0.383 0.044 0.576 0.049 0.69 0.098 1.391 0.307 2.052 0.361 1.123 1.075 2.135 2.063 2.921 0.863 0.684 1.906 1.172 3.036 1.421 0.956 0.202 2.067 0.179 3.111 0.157 0.311-0.006 0.615-0.013 0.908-0.013l10.758 0c0.274 0 0.556 0.006 0.842 0.012 0.926 0.019 1.892 0.039 2.758-0.137 1.218-0.248 2.45-0.831 3.339-1.601 0.827-0.717 1.488-1.674 1.777-2.663 0.221-0.756 0.277-1.586 0.33-2.391 0.017-0.259 0.034-0.516 0.057-0.768l0.471-5.292 0.587-6.497c0.028-0.321 0.065-0.645 0.102-0.97 0.080-0.705 0.16-1.414 0.158-2.111-0.001-0.428-0.105-0.828-0.456-1.146-0.242-0.219-0.637-0.326-0.972-0.374-0.501-0.071-1.051-0.059-1.583-0.046-0.197 0.005-0.391 0.009-0.579 0.009-1.342-0.002-2.684 0.002-4.025 0.012l-0.058 0.001c0.032-2.245-0.541-4.172-2.389-5.814-1.544-1.397-3.669-2.19-5.893-2.199l-0.028 0zM24.147 12.807l0.072 0.004c0.002 0.004 0.004 0.008 0.005 0.012 0.001 0.002 0.002 0.004 0.003 0.006 0.003 0.007 0.006 0.012 0.008 0.018l0.003 0.006c0.013 0.026 0.016 0.031 0.015 0.073-0.023 2.753-0.867 6.298-3.104 8.314-2.072 1.867-5.289 2.784-8.223 2.834 1.367-2.245 3.563-4.374 5.828-5.955 0.35-0.244 0.717-0.465 1.084-0.686 0.236-0.142 0.473-0.285 0.705-0.433 0.225-0.144 0.529-0.34 0.561-0.604 0.029-0.243-0.118-0.431-0.292-0.604-0.244-0.123-0.422-0.175-0.7-0.104-0.395 0.101-0.793 0.356-1.152 0.587-0.095 0.061-0.188 0.12-0.277 0.174-2.905 1.796-5.318 4.131-7.068 6.838-0.059-2.202 0.515-4.047 2.062-5.818 2.321-2.658 6.762-4.221 10.47-4.662zM1.6 9.38l28.817-0c-0.102 0.848-0.169 1.703-0.235 2.557-0.037 0.476-0.074 0.952-0.117 1.425l-0.776 8.492-0.29 3.129c-0.013 0.136-0.025 0.272-0.036 0.409-0.047 0.54-0.094 1.085-0.213 1.613-0.122 0.542-0.36 1.014-0.682 1.487-0.124 0.165-0.259 0.323-0.404 0.475-0.835 0.872-2.207 1.521-3.509 1.607-0.709 0.047-1.439 0.035-2.162 0.023-0.313-0.005-0.625-0.010-0.933-0.010l-10.736 0c-0.229 0-0.463 0.004-0.698 0.009-0.722 0.013-1.46 0.026-2.154-0.078-0.91-0.139-1.76-0.489-2.461-1.013-0.84-0.618-1.442-1.446-1.726-2.373-0.194-0.614-0.243-1.268-0.291-1.911-0.012-0.161-0.024-0.322-0.038-0.481l-0.283-3.184-1.073-12.177zM24.787 11.331l-0.021 0.002c-4.374 0.442-9.354 2.013-12.182 5.108-1.817 1.989-2.81 4.576-2.482 7.124 0.072 0.559 0.217 1.094 0.426 1.626-0.024 0.053-0.053 0.116-0.085 0.188-0.359 0.788-1.193 2.62-0.903 3.161 0.084 0.156 0.255 0.262 0.44 0.313 0.076 0.021 0.153 0.033 0.233 0.041 0.245-0.035 0.472-0.079 0.619-0.271 0.158-0.206 0.321-0.701 0.459-1.124 0.066-0.202 0.127-0.387 0.179-0.517 0.18-0.446 0.384-0.884 0.588-1.322l0.002-0.005c0.024-0.051 0.048-0.102 0.072-0.154 3.607 0.009 7.46-0.977 10.069-3.226 2.918-2.515 3.653-6.571 3.659-10.003 0-0.271-0.021-0.592-0.248-0.799-0.139-0.127-0.349-0.166-0.544-0.162-0.094 0.002-0.188 0.011-0.282 0.019zM15.666 1.377c0.14-0.008 0.28-0.014 0.42-0.014 1.713 0.010 3.429 0.68 4.633 1.734 1.639 1.436 1.975 2.96 1.978 4.909l-13.342 0.005c-0.054-1.675 0.255-3.206 1.513-4.528 1.209-1.271 2.934-1.961 4.797-2.106z"></path>
</symbol>
</defs>
</svg>
